<?xml version="1.0" encoding="utf-8"?>
<!-- Generator: Adobe Illustrator 21.1.0, SVG Export Plug-In . SVG Version: 6.00 Build 0)  -->
<svg version="1.1" id="Camada_1" xmlns="http://www.w3.org/2000/svg" xmlns:xlink="http://www.w3.org/1999/xlink" x="0px" y="0px"
	 viewBox="0 0 200 33.5" style="enable-background:new 0 0 200 33.5;" xml:space="preserve">
<style type="text/css">
	.st0{fill-rule:evenodd;clip-rule:evenodd;fill:#FFFFFF;}
	.st1{fill:#FFFFFF;}
	.st2{opacity:0.5;fill-rule:evenodd;clip-rule:evenodd;fill:#FFFFFF;}
	.st3{opacity:0.5;fill:#FFFFFF;}
</style>
<g>
	<g>
		<path class="st0" d="M35.4,29.4c3-0.1,3.7-0.6,3.7-1.9V6.9c0-1.3-0.7-1.8-3.7-1.9V4.5h11.9c8.8,0,11.5,2.9,11.5,7.3
			c0,4.1-2.9,7.3-11.5,7.3h-2v8.5c0,1.3,0.4,1.8,3.9,1.9v0.4H35.4V29.4z M46.8,18.5c4.4,0,5.6-2.2,5.6-6.7c0-4-1.3-6.6-5.5-6.6h-1.7
			v13.4H46.8z"/>
		<path class="st0" d="M60.3,16.6c1-8.1,7.1-13.4,14.5-13.4c7.7,0,12.3,5.1,11.3,13.2c-1,8.2-7.1,13.4-14.6,13.4
			C63.9,29.9,59.3,24.9,60.3,16.6z M79.5,16.6c1.1-8.7-0.6-12.6-4.8-12.6c-4.3,0-6.5,3.9-7.6,12.6c-1.1,8.8,0.5,12.7,4.8,12.7
			C76.1,29.2,78.4,25.3,79.5,16.6z"/>
		<path class="st1" d="M88.2,8.2c-1-2.4-1.7-3.2-4.3-3.6V4.1h13.9v0.5c-3.5,0.1-4.1,1-3.3,3l6.3,16h0.2l5.4-14.3
			c1.1-2.9,0.4-4.2-2.9-4.7V4.1h8.8v0.5c-2.7,0.5-3.7,1.6-5.3,5.9l-7.5,19.4h-2.4L88.2,8.2z"/>
		<path class="st0" d="M108.1,16.6c1-8.1,7.1-13.4,14.5-13.4c7.7,0,12.3,5.1,11.3,13.2c-1,8.2-7.1,13.4-14.6,13.4
			C111.6,29.9,107.1,24.9,108.1,16.6z M127.2,16.6c1.1-8.7-0.6-12.6-4.8-12.6c-4.3,0-6.5,3.9-7.6,12.6c-1.1,8.8,0.5,12.7,4.8,12.7
			C123.9,29.2,126.1,25.3,127.2,16.6z"/>
		<path class="st0" d="M1.6,16.6c1-8.1,7.1-13.4,14.5-13.4c7.7,0,12.3,5.1,11.3,13.2c-1,8.2-7.1,13.4-14.6,13.4
			C5.2,29.9,0.6,24.9,1.6,16.6z M20.7,16.6c1.1-8.7-0.6-12.6-4.8-12.6c-4.2,0-6.5,3.9-7.6,12.6c-1.1,8.8,0.5,12.7,4.8,12.7
			C17.4,29.2,19.7,25.3,20.7,16.6z"/>
	</g>
	<path class="st2" d="M147.9,28.6c0.3,0,0.5,0,0.7-0.1c0.2-0.1,0.3-0.2,0.5-0.4c0.1-0.2,0.2-0.4,0.3-0.5c0.1-0.2,0.1-0.4,0.1-0.7
		c0-0.3,0.1-0.6,0.1-0.8c0-0.2,0-0.5,0-0.9v-4.8c0-0.3,0-0.6,0-0.7c0-0.2,0-0.4,0-0.7c0-0.3,0-0.5-0.1-0.7c0-0.2-0.1-0.3-0.2-0.5
		c-0.1-0.2-0.2-0.3-0.3-0.4c-0.1-0.1-0.3-0.2-0.4-0.3c-0.2-0.1-0.4-0.1-0.6-0.1c-0.2,0-0.4,0-0.6,0.1c-0.2,0.1-0.3,0.2-0.4,0.3
		c-0.1,0.1-0.2,0.2-0.3,0.4c-0.1,0.2-0.1,0.4-0.2,0.5c0,0.2-0.1,0.4-0.1,0.7c0,0.3,0,0.5,0,0.7c0,0.2,0,0.4,0,0.7v4.8
		c0,0.3,0,0.6,0,0.7c0,0.2,0,0.4,0,0.7c0,0.3,0,0.5,0.1,0.7c0,0.2,0.1,0.3,0.2,0.5c0.1,0.2,0.2,0.3,0.3,0.4c0.1,0.1,0.3,0.2,0.4,0.3
		C147.4,28.6,147.6,28.6,147.9,28.6z M147.9,30.8c-0.8,0-1.5-0.1-2.1-0.4c-0.6-0.3-1-0.6-1.4-1.2c-0.3-0.5-0.6-1.1-0.7-1.8
		c-0.2-0.7-0.2-1.5-0.2-2.4v-4.5c0-0.9,0.1-1.7,0.2-2.4c0.2-0.7,0.4-1.3,0.7-1.8c0.3-0.5,0.8-0.9,1.4-1.2c0.6-0.3,1.3-0.4,2.1-0.4
		c1.6,0,2.7,0.5,3.4,1.5c0.7,1,1,2.4,1,4.2l0,4.5c0,1.8-0.3,3.2-1,4.2C150.6,30.3,149.5,30.8,147.9,30.8z"/>
	<path class="st2" d="M154.9,30.5V15.2h2.8v1.5c1.2-1.2,2.4-1.7,3.7-1.7c0.4,0,0.8,0.1,1.1,0.3s0.6,0.4,0.7,0.7
		c0.2,0.3,0.3,0.6,0.3,1c0.1,0.3,0.1,0.7,0.1,1.1v12.4h-2.8V18.9c0-0.6-0.1-1-0.3-1.3c-0.2-0.3-0.5-0.4-0.9-0.4
		c-0.6,0-1.2,0.3-2,0.9v12.4H154.9z"/>
	<rect x="166.7" y="9" class="st0" width="2.8" height="21.5"/>
	<rect x="172.6" y="9.9" class="st3" width="2.8" height="3"/>
	<rect x="172.6" y="15.2" class="st1" width="2.8" height="15.4"/>
	<path class="st0" d="M178.5,30.5V15.2h2.8v1.5c1.2-1.2,2.4-1.7,3.7-1.7c0.4,0,0.8,0.1,1.1,0.3c0.3,0.2,0.6,0.4,0.7,0.7
		c0.2,0.3,0.3,0.6,0.3,1c0.1,0.3,0.1,0.7,0.1,1.1v12.4h-2.8V18.9c0-0.6-0.1-1-0.3-1.3c-0.2-0.3-0.5-0.4-1-0.4c-0.6,0-1.2,0.3-2,0.9
		v12.4H178.5z"/>
	<path class="st0" d="M192.5,21.4h3.2V20c0-0.4,0-0.7,0-1c0-0.3-0.1-0.5-0.1-0.8c-0.1-0.3-0.2-0.5-0.3-0.6c-0.1-0.1-0.3-0.3-0.5-0.4
		c-0.2-0.1-0.4-0.1-0.7-0.1c-0.7,0-1.1,0.2-1.3,0.7c-0.2,0.5-0.3,1.4-0.3,2.8V21.4z M194.2,30.8c-0.9,0-1.6-0.1-2.2-0.4
		c-0.6-0.3-1-0.7-1.4-1.2c-0.3-0.5-0.6-1.2-0.7-1.9c-0.1-0.7-0.2-1.6-0.2-2.7v-3.5c0-1.1,0.1-2,0.2-2.7c0.1-0.7,0.4-1.4,0.7-1.9
		c0.3-0.5,0.8-0.9,1.4-1.2c0.6-0.3,1.3-0.4,2.2-0.4c0.5,0,1,0.1,1.4,0.2c0.4,0.1,0.8,0.2,1.1,0.4c0.3,0.2,0.6,0.4,0.8,0.7
		c0.2,0.3,0.4,0.6,0.5,1c0.1,0.3,0.2,0.8,0.3,1.2c0.1,0.5,0.1,1,0.2,1.5c0,0.5,0,1,0,1.7l0,1.2h-6v2v0.2c0,0.4,0,0.8,0,1
		c0,0.2,0,0.5,0.1,0.8c0,0.3,0.1,0.6,0.1,0.7c0.1,0.2,0.2,0.3,0.3,0.5c0.1,0.2,0.3,0.3,0.5,0.4c0.2,0.1,0.4,0.1,0.7,0.1
		c0.6,0,1-0.2,1.2-0.6c0.2-0.4,0.3-1.1,0.3-1.9v-0.9h2.7v0.6C198.5,29.1,197.1,30.8,194.2,30.8z"/>
</g>
</svg>
